<svg xmlns="http://www.w3.org/2000/svg" style="display:none">
  <symbol id="logo" viewBox="0 0 30 29">
    <path fill-rule="evenodd" clip-rule="evenodd" d="M13.7137 1.64472C14.1141 1.13515 14.886 1.13515 15.2863 1.64472L24.2011 12.9908C24.6423 13.5524 24.5448 14.3653 23.9832 14.8066C23.4216 15.2478 22.6087 15.1502 22.1674 14.5887L20.0042 11.8355C17.2016 8.26853 11.7984 8.26853 8.99579 11.8355L6.83261 14.5887C6.39137 15.1502 5.57842 15.2478 5.01684 14.8066C4.45525 14.3653 4.3577 13.5524 4.79894 12.9908L13.7137 1.64472Z"/>
    <path d="M1.91297 19.4L1.90297 20.62C1.86297 23.59 1.57297 24.87 0.762969 24.87C0.622969 24.87 0.532969 24.86 0.492969 24.85V26C0.682969 26.07 0.872969 26.1 1.06297 26.1C2.47297 26.07 3.11297 24.88 3.19297 20.62H5.09297V26H6.44297V19.4H1.91297ZM11.8631 20.94L9.09313 23.75V21.05H7.75312V26.12H8.19312L10.9531 23.32V26H12.3031V20.94H11.8631ZM17.7204 23.06C17.7204 21.69 16.8904 20.94 15.6004 20.94C14.7304 20.94 14.0104 21.28 13.4404 21.96L14.1404 22.79C14.5804 22.32 14.9404 22.11 15.4504 22.11C16.0504 22.11 16.3704 22.43 16.3704 22.98V23.2H15.1304C13.9804 23.2 13.2604 23.75 13.2604 24.64C13.2604 25.51 13.9204 26.12 14.9704 26.12C15.6004 26.12 16.1204 25.89 16.4804 25.52V26H17.7204V23.06ZM16.3704 24.15C16.3704 24.72 15.9204 25.13 15.3304 25.13C14.9004 25.13 14.6204 24.92 14.6204 24.59C14.6204 24.26 14.8704 24.09 15.3104 24.09H16.3704V24.15ZM18.9496 26H20.2896V24.01H22.1196V26H23.4596V21.05H22.1196V22.86H20.2896V21.05H18.9496V26ZM28.8778 23.06C28.8778 21.69 28.0478 20.94 26.7578 20.94C25.8878 20.94 25.1678 21.28 24.5978 21.96L25.2978 22.79C25.7378 22.32 26.0978 22.11 26.6078 22.11C27.2078 22.11 27.5278 22.43 27.5278 22.98V23.2H26.2878C25.1378 23.2 24.4178 23.75 24.4178 24.64C24.4178 25.51 25.0778 26.12 26.1278 26.12C26.7578 26.12 27.2778 25.89 27.6378 25.52V26H28.8778V23.06ZM27.5278 24.15C27.5278 24.72 27.0778 25.13 26.4878 25.13C26.0578 25.13 25.7778 24.92 25.7778 24.59C25.7778 24.26 26.0278 24.09 26.4678 24.09H27.5278V24.15Z"/>
  </symbol>
  <symbol id="operations" viewBox="0 0 16 16">
    <path fill-rule="evenodd" clip-rule="evenodd" d="M5.5 1.00002C5.10948 0.609492 4.47631 0.609492 4.08579 1.00002L1.29289 3.79291C0.902369 4.18343 0.902369 4.8166 1.29289 5.20712L4.08579 8.00002C4.47631 8.39054 5.10948 8.39054 5.5 8.00002C5.89052 7.60949 5.89052 6.97633 5.5 6.5858L4.41421 5.50002H12.5C13.0523 5.50002 13.5 5.0523 13.5 4.50002C13.5 3.94773 13.0523 3.50002 12.5 3.50002H4.41421L5.5 2.41423C5.89052 2.0237 5.89052 1.39054 5.5 1.00002ZM9.99994 15C10.3905 15.3905 11.0236 15.3905 11.4142 15L14.207 12.2071C14.5976 11.8166 14.5976 11.1834 14.207 10.7929L11.4142 7.99999C11.0236 7.60946 10.3905 7.60946 9.99994 7.99999C9.60942 8.39051 9.60942 9.02368 9.99994 9.4142L11.0857 10.5L2.99994 10.5C2.44766 10.5 1.99994 10.9477 1.99994 11.5C1.99994 12.0523 2.44766 12.5 2.99994 12.5L11.0857 12.5L9.99994 13.5858C9.60942 13.9763 9.60942 14.6095 9.99994 15Z"/>
  </symbol>
  <symbol id="reports" viewBox="0 0 16 16">
    <path fill-rule="evenodd" clip-rule="evenodd" d="M15 2.07692C15 1.48216 14.5523 1 14 1C13.4477 1 13 1.48216 13 2.07692V12.9231C13 13.5178 13.4477 14 14 14C14.5523 14 15 13.5178 15 12.9231L15 2.07692ZM7 4.07692C7 3.48216 6.55228 3 6 3C5.44772 3 5 3.48216 5 4.07692L5 12.9231C5 13.5178 5.44771 14 6 14C6.55228 14 7 13.5178 7 12.9231L7 4.07692ZM3 8.07692C3 7.48216 2.55228 7 2 7C1.44772 7 1 7.48216 1 8.07692V12.9231C1 13.5178 1.44771 14 2 14C2.55228 14 3 13.5178 3 12.9231L3 8.07692ZM10 5C10.5523 5 11 5.48216 11 6.07692L11 12.9231C11 13.5178 10.5523 14 10 14C9.44771 14 9 13.5178 9 12.9231L9 6.07692C9 5.48216 9.44772 5 10 5Z"/>
  </symbol>
  <symbol id="counterparties" viewBox="0 0 16 16">
    <path fill-rule="evenodd" clip-rule="evenodd" d="M7 5C7 6.10457 6.10457 7 5 7C3.89543 7 3 6.10457 3 5C3 3.89543 3.89543 3 5 3C6.10457 3 7 3.89543 7 5ZM8 7.64582C7.88942 7.77111 7.77111 7.88942 7.64582 8C7.77111 8.11058 7.88942 8.22889 8 8.35418C8.11058 8.22889 8.22889 8.11058 8.35418 8C8.22889 7.88942 8.11058 7.77111 8 7.64582ZM13.6458 8C14.4762 7.26706 15 6.19469 15 5C15 2.79086 13.2091 1 11 1C9.80531 1 8.73295 1.52376 8 2.35418C7.26706 1.52376 6.19469 1 5 1C2.79086 1 1 2.79086 1 5C1 6.19469 1.52376 7.26706 2.35418 8C1.52376 8.73295 1 9.80531 1 11C1 13.2091 2.79086 15 5 15C6.19469 15 7.26706 14.4762 8 13.6458C8.73295 14.4762 9.80531 15 11 15C13.2091 15 15 13.2091 15 11C15 9.80531 14.4762 8.73295 13.6458 8ZM11 9C9.89543 9 9 9.89543 9 11C9 12.1046 9.89543 13 11 13C12.1046 13 13 12.1046 13 11C13 9.89543 12.1046 9 11 9ZM7 11C7 9.89543 6.10457 9 5 9C3.89543 9 3 9.89543 3 11C3 12.1046 3.89543 13 5 13C6.10457 13 7 12.1046 7 11ZM11 7C9.89543 7 9 6.10457 9 5C9 3.89543 9.89543 3 11 3C12.1046 3 13 3.89543 13 5C13 6.10457 12.1046 7 11 7Z"/>
  </symbol>
  <symbol id="projects" viewBox="0 0 16 16">
    <path fill-rule="evenodd" clip-rule="evenodd" d="M8.62934 1.8928C8.95156 1.98701 9.24487 2.16082 9.48224 2.3982L11.0849 4.00087L11.7929 3.29289C12.1834 2.90237 12.8166 2.90237 13.2071 3.29289C13.5976 3.68342 13.5976 4.31658 13.2071 4.70711L12.4991 5.41508L13.9602 6.87612C14.1975 7.11349 14.3713 7.40681 14.4656 7.72902L15.2967 10.5715C15.8778 12.5586 13.4268 14.0109 11.9629 12.547L8.66505 9.24916L2.70711 15.2071C2.31658 15.5976 1.68342 15.5976 1.29289 15.2071C0.902369 14.8166 0.902369 14.1834 1.29289 13.7929L7.25084 7.83494L3.81136 4.39546C2.34741 2.93152 3.79978 0.480583 5.78689 1.06164L8.62934 1.8928ZM10.307 6.05137L8.06803 3.81241L5.22558 2.98125L13.3771 11.1328L12.5459 8.29033L10.307 6.05137Z"/>
  </symbol>
  <symbol id="expenditure" viewBox="0 0 16 16">
    <path fill-rule="evenodd" clip-rule="evenodd" d="M1 3C1 2.44772 1.48215 2 2.07692 2H13.9231C14.5178 2 15 2.44772 15 3C15 3.55228 14.5178 4 13.9231 4H2.07692C1.48215 4 1 3.55228 1 3ZM1 8C1 7.44772 1.48215 7 2.07692 7H13.9231C14.5178 7 15 7.44772 15 8C15 8.55228 14.5178 9 13.9231 9H2.07692C1.48215 9 1 8.55228 1 8ZM2.07692 12C1.48215 12 1 12.4477 1 13C1 13.5523 1.48215 14 2.07692 14H13.9231C14.5178 14 15 13.5523 15 13C15 12.4477 14.5178 12 13.9231 12H2.07692Z"/>
  </symbol>
  <symbol id="employees" viewBox="0 0 16 16">
    <circle cx="8" cy="5" r="4" fill="transparent" stroke="#2E2E2E" stroke-width="2"/>
    <path d="M14 16C14 12.6863 11.3137 10 8 10C4.68629 10 2 12.6863 2 16" fill="transparent" stroke="#2E2E2E" stroke-width="2"/>
  </symbol>
  <symbol id="settings" viewBox="0 0 16 16">
    <path fill-rule="evenodd" clip-rule="evenodd" d="M1 3C1 2.44772 1.48215 2 2.07692 2H13.9231C14.5178 2 15 2.44772 15 3C15 3.55228 14.5178 4 13.9231 4H2.07692C1.48215 4 1 3.55228 1 3Z"/>
    <path fill-rule="evenodd" clip-rule="evenodd" d="M1 8C1 7.44772 1.48215 7 2.07692 7H13.9231C14.5178 7 15 7.44772 15 8C15 8.55228 14.5178 9 13.9231 9H2.07692C1.48215 9 1 8.55228 1 8Z"/>
    <path fill-rule="evenodd" clip-rule="evenodd" d="M5 10C4.44772 10 4 9.51785 4 8.92308L4 7.07692C4 6.48215 4.44772 6 5 6C5.55228 6 6 6.48215 6 7.07692L6 8.92308C6 9.51784 5.55228 10 5 10Z"/>
    <path fill-rule="evenodd" clip-rule="evenodd" d="M11 15C10.4477 15 10 14.5178 10 13.9231L10 12.0769C10 11.4822 10.4477 11 11 11C11.5523 11 12 11.4822 12 12.0769L12 13.9231C12 14.5178 11.5523 15 11 15Z"/>
    <path fill-rule="evenodd" clip-rule="evenodd" d="M9 5C8.44772 5 8 4.51785 8 3.92308L8 2.07692C8 1.48215 8.44772 0.999999 9 0.999999C9.55228 0.999999 10 1.48215 10 2.07692L10 3.92308C10 4.51784 9.55228 5 9 5Z"/>
    <path fill-rule="evenodd" clip-rule="evenodd" d="M1 13C1 12.4477 1.48215 12 2.07692 12H13.9231C14.5178 12 15 12.4477 15 13C15 13.5523 14.5178 14 13.9231 14H2.07692C1.48215 14 1 13.5523 1 13Z"/>
  </symbol>
  <symbol id="faq" viewBox="0 0 16 16">
    <circle cx="8" cy="8" r="7" fill="transparent" stroke="#2E2E2E" stroke-width="2"/>
    <path d="M7.2719 8.46784C7.2719 8.65497 7.31868 8.8421 7.40056 9.02924H8.73389C8.72219 8.93567 8.7105 8.8538 8.7105 8.78363C8.7105 8.46784 8.88593 8.31579 9.52921 7.75439C10.2193 7.1579 10.5 6.70175 10.5 6.04678C10.5 4.83041 9.49412 4 8.19588 4C7.07307 4 6.21927 4.60819 5.89178 5.77778L7.17833 6.33918C7.40056 5.74269 7.72804 5.45029 8.14909 5.45029C8.57015 5.45029 8.88593 5.74269 8.88593 6.16374C8.88593 6.52632 8.72219 6.71345 8.19588 7.1462C7.57599 7.64912 7.2719 8.03509 7.2719 8.46784ZM7.01459 10.9123C7.01459 11.5322 7.49412 12 8.11401 12C8.73389 12 9.20172 11.5322 9.20172 10.9123C9.20172 10.3041 8.73389 9.82456 8.11401 9.82456C7.49412 9.82456 7.01459 10.3041 7.01459 10.9123Z" fill="#2E2E2E"/>
  </symbol>
  <symbol id="arrow" viewBox="0 0 8 12">
    <path fill-rule="evenodd" clip-rule="evenodd" d="M0.687718 8.76284C0.31048 8.39416 0.31048 7.78728 0.687718 7.4186C1.05291 7.06169 1.63628 7.06169 2.00147 7.4186L3.04923 8.44259L3.04923 0.950771C3.04923 0.425675 3.4749 -1.51893e-07 4 -1.74846e-07C4.5251 -1.97798e-07 4.95077 0.425674 4.95077 0.950771L4.95077 8.44259L5.99853 7.4186C6.36372 7.06169 6.94709 7.06169 7.31228 7.4186C7.68952 7.78728 7.68952 8.39416 7.31228 8.76284L4.69895 11.3169C4.31036 11.6967 3.68964 11.6967 3.30105 11.3169L0.687718 8.76284Z"/>
  </symbol>
</svg>